<svg id="Layer_1" data-name="Layer 1" xmlns="http://www.w3.org/2000/svg" viewBox="0 0 296 56"><defs><style>.cls-1{fill:#009eb8;}</style></defs><title>Artboard 1</title><path class="cls-1" d="M294.87,55.49a1.13,1.13,0,1,0,0-2.26H284v-9h8A1.13,1.13,0,1,0,292,42h-8V33.14h10.49a1.13,1.13,0,1,0,0-2.26H282.74a1.23,1.23,0,0,0-1.24,1.24V54.25a1.23,1.23,0,0,0,1.24,1.24ZM268.52,56a10.2,10.2,0,0,0,8.26-3.87,1.12,1.12,0,0,0,.22-.69,1.17,1.17,0,0,0-2.12-.69,7.68,7.68,0,0,1-6.36,3c-5.63,0-8.84-2.93-8.84-10.54,0-7.17,3.22-10.57,8.84-10.57a7.94,7.94,0,0,1,6.36,3.07A1.18,1.18,0,0,0,277,35a1.28,1.28,0,0,0-.26-.77,10,10,0,0,0-8.22-3.87c-7.09,0-11.4,4.17-11.4,12.84,0,9,4.31,12.8,11.4,12.8M251.75,30.58a1.22,1.22,0,0,0-1.2,1.21V50.55L237.6,31.09a1.25,1.25,0,0,0-1-.51,1.22,1.22,0,0,0-1.2,1.21V54.57a1.2,1.2,0,1,0,2.41,0V35.85l12.87,19.42a1.25,1.25,0,0,0,2.26-.73V31.79a1.22,1.22,0,0,0-1.2-1.21M230.22,55.49a1.13,1.13,0,1,0,0-2.26H219.33v-9h8a1.13,1.13,0,1,0,0-2.26h-8V33.14h10.49a1.13,1.13,0,1,0,0-2.26H218.09a1.23,1.23,0,0,0-1.24,1.24V54.25a1.23,1.23,0,0,0,1.24,1.24ZM195.87,30.87a1.23,1.23,0,0,0-1.24,1.24V54.25a1.23,1.23,0,0,0,1.24,1.24H201c7,0,11.29-3.25,11.29-12.29S208,30.87,201,30.87Zm1.24,2.26H201c5.45,0,8.77,2.52,8.77,10.06s-3.33,10-8.77,10h-3.91Zm-8.33-1.31a1.24,1.24,0,1,0-2.48,0V54.54a1.24,1.24,0,1,0,2.48,0ZM169.85,44.51h8a1.13,1.13,0,1,0,0-2.26h-8V33.14h10.49a1.13,1.13,0,1,0,0-2.26H168.61a1.23,1.23,0,0,0-1.24,1.24V54.54a1.24,1.24,0,1,0,2.48,0Zm-9.17-13.93a1.22,1.22,0,0,0-1.2,1.21V50.55L146.54,31.09a1.25,1.25,0,0,0-1-.51,1.22,1.22,0,0,0-1.2,1.21V54.57a1.2,1.2,0,1,0,2.41,0V35.85l12.87,19.42a1.25,1.25,0,0,0,2.26-.73V31.79a1.22,1.22,0,0,0-1.2-1.21m-31.9,2c5.59,0,8.85,3.4,8.85,10.57s-3.25,10.54-8.85,10.54-8.85-3.4-8.85-10.54,3.25-10.57,8.85-10.57m0,23.37c7.09,0,11.4-4.2,11.4-12.8s-4.31-12.84-11.4-12.84-11.4,4.17-11.4,12.84S121.69,56,128.78,56m-23.06,0c3.36,0,6.65-1.53,8.26-3.87a1.13,1.13,0,0,0,.22-.69,1.18,1.18,0,0,0-2.12-.69,7.67,7.67,0,0,1-6.36,3c-5.63,0-8.84-2.93-8.84-10.54,0-7.17,3.22-10.57,8.84-10.57a7.94,7.94,0,0,1,6.36,3.07,1.18,1.18,0,0,0,2.12-.69,1.29,1.29,0,0,0-.26-.77,10,10,0,0,0-8.22-3.87c-7.09,0-11.4,4.17-11.4,12.84,0,9,4.31,12.8,11.4,12.8m-31.17-.22a1.23,1.23,0,0,0,1.24-1.24V44l7.34-11.56a1.27,1.27,0,0,0,.18-.66,1.25,1.25,0,0,0-2.3-.66L74.55,41.55,68.08,31.17a1.25,1.25,0,0,0-2.3.66,1.27,1.27,0,0,0,.18.66L73.31,44v10.5a1.23,1.23,0,0,0,1.24,1.24M47.76,30.87a1.23,1.23,0,0,0-1.24,1.24V54.25a1.23,1.23,0,0,0,1.24,1.24h5.15c7,0,11.29-3.25,11.29-12.29S59.89,30.87,52.91,30.87ZM49,33.14h3.91c5.45,0,8.77,2.52,8.77,10.06s-3.33,10-8.77,10H49Zm-18.42-.51c5.59,0,8.85,3.4,8.85,10.57s-3.25,10.54-8.85,10.54-8.85-3.4-8.85-10.54S25,32.63,30.58,32.63m0,23.37C37.68,56,42,51.8,42,43.2s-4.31-12.84-11.4-12.84-11.4,4.17-11.4,12.84S23.49,56,30.58,56m-22-.51c4.83,0,7.49-2.78,7.49-7a5.83,5.83,0,0,0-4.67-6.11,5.06,5.06,0,0,0,3.54-5c0-4-2.3-6.51-7.45-6.51H1.24A1.25,1.25,0,0,0,0,32.12V54.25a1.25,1.25,0,0,0,1.24,1.24ZM2.48,43.75h6c3.11,0,5,1.72,5,4.72s-1.68,4.76-5,4.76h-6Zm0-10.61H7.42c3.4,0,5,1.61,5,4.25s-1.72,4.25-5,4.25H2.48Z"/><path class="cls-1" d="M248,10.17h2.59l5.21,7.27a.87.87,0,0,0,1.62-.46.85.85,0,0,0-.18-.54l-4.7-6.27a4.72,4.72,0,0,0,4.59-4.91,4.79,4.79,0,0,0-4.9-4.91h-5.11a.86.86,0,0,0-.87.87V17A.87.87,0,1,0,248,17Zm0-8.22h4.21a3.13,3.13,0,0,1,3.16,3.32,3.13,3.13,0,0,1-3.08,3.32H248ZM235.1,1.59C239,1.59,241.31,4,241.31,9s-2.28,7.4-6.21,7.4S228.89,14,228.89,9s2.28-7.43,6.21-7.43m0,16.42c5,0,8-3,8-9s-3-9-8-9-8,2.93-8,9,3,9,8,9M216.72,9.94h5.65a.8.8,0,1,0,0-1.59h-5.65V1.95h7.37a.79.79,0,1,0,0-1.59h-8.24a.86.86,0,0,0-.87.87V17a.87.87,0,1,0,1.74,0ZM204.17.15a.85.85,0,0,0-.85.85V14.18L194.23.51a.88.88,0,0,0-.69-.36.85.85,0,0,0-.85.85V17a.85.85,0,1,0,1.69,0V3.85l9,13.64A.88.88,0,0,0,205,17V1a.85.85,0,0,0-.85-.85M183,16.42c-4,0-6.21-2.06-6.21-7.4,0-5,2.26-7.43,6.21-7.43a5.54,5.54,0,0,1,4.47,2.16A.82.82,0,0,0,189,3.26a.91.91,0,0,0-.18-.54A7,7,0,0,0,183,0c-5,0-8,2.93-8,9,0,6.32,3,9,8,9a7.56,7.56,0,0,0,6.13-2.82,1.27,1.27,0,0,0,.33-.85V9.84a.82.82,0,0,0-.79-.79H183.5a.8.8,0,1,0,0,1.59h4.29v3.73A5.9,5.9,0,0,1,183,16.42M171.82,1a.87.87,0,1,0-1.74,0V17a.87.87,0,1,0,1.74,0Zm-8.08,11.51,1.85,4.73a.9.9,0,0,0,1.75-.28,1.26,1.26,0,0,0-.08-.39L161,.75a.91.91,0,0,0-.85-.59.85.85,0,0,0-.82.59L153.06,16.6A1,1,0,0,0,153,17a.88.88,0,0,0,.87.87.89.89,0,0,0,.85-.62l1.87-4.7Zm-.54-1.59h-6.08l3-7.86Zm-19.28-.54h4.24c2.8,0,4.9-1.67,4.9-5s-2.15-5-4.9-5H143a.86.86,0,0,0-.87.87V17a.87.87,0,1,0,1.74,0Zm0-8.45h4a3.1,3.1,0,0,1,3.39,3.42,3.12,3.12,0,0,1-3.39,3.44h-4Zm-13.71,12.9a.85.85,0,0,0,.77-.49l5.39-10V17a.85.85,0,1,0,1.69,0V1a.85.85,0,0,0-1.61-.36l-6.24,11.64L124,.64a.84.84,0,0,0-.77-.49.85.85,0,0,0-.84.85V17a.85.85,0,1,0,1.69,0V4.37l5.37,10a.86.86,0,0,0,.77.49M116.3,12.54l1.85,4.73a.9.9,0,0,0,1.75-.28,1.25,1.25,0,0,0-.08-.39L113.55.75a.91.91,0,0,0-.85-.59.85.85,0,0,0-.82.59L105.62,16.6a1,1,0,0,0-.08.39.88.88,0,0,0,.87.87.9.9,0,0,0,.85-.62l1.87-4.7Zm-.54-1.59h-6.08l3-7.86ZM97.92,18a7.17,7.17,0,0,0,5.8-2.72.8.8,0,0,0,.15-.49.83.83,0,0,0-1.49-.49,5.39,5.39,0,0,1-4.47,2.11c-4,0-6.21-2.06-6.21-7.4,0-5,2.26-7.43,6.21-7.43a5.58,5.58,0,0,1,4.47,2.16.83.83,0,0,0,1.49-.49.91.91,0,0,0-.18-.54A7,7,0,0,0,97.92,0c-5,0-8,2.93-8,9,0,6.32,3,9,8,9"/><path class="cls-1" d="M79.71,17.65a.8.8,0,1,0,0-1.59H72.06V9.74h5.65a.8.8,0,1,0,0-1.59H72.06V2h7.37a.8.8,0,1,0,0-1.59H71.19a.86.86,0,0,0-.87.87V16.78a.86.86,0,0,0,.87.87ZM64.47,9.58V17a.87.87,0,1,0,1.74,0V1a.87.87,0,1,0-1.74,0V8H55.53V1a.87.87,0,1,0-1.74,0V17a.87.87,0,1,0,1.74,0V9.58ZM44,2V17a.87.87,0,1,0,1.74,0V2h4.57a.81.81,0,0,0,.82-.82.81.81,0,0,0-.82-.82H39.36a.81.81,0,0,0-.82.82.81.81,0,0,0,.82.82Z"/></svg>